<?xml version="1.0" encoding="utf-8"?>
<!-- Generator: Adobe Illustrator 25.2.0, SVG Export Plug-In . SVG Version: 6.00 Build 0)  -->
<svg version="1.1" id="Layer_1" xmlns="http://www.w3.org/2000/svg" xmlns:xlink="http://www.w3.org/1999/xlink" x="0px" y="0px"
	 viewBox="0 0 595.28 841.89" style="enable-background:new 0 0 595.28 841.89;" xml:space="preserve">
<style type="text/css">
	.st0{fill:#652F0F;}
	.st1{fill:#F39400;}
	.st2{fill:#FFEB00;}
	.st3{fill:#824A97;}
	.st4{fill:#A778B3;}
	.st5{fill:#62C3D9;}
	.st6{fill:#E5007F;}
	.st7{fill:#A71A80;}
	.st8{fill:#60C6F2;}
	.st9{fill:#1760AB;}
	.st10{fill:#FFFFFF;}
	.st11{fill:#AFCA12;}
</style>
<g>
	<g>
		<path class="st0" d="M-230,405.08L-230,405.08c-6.3,0-11.59,2.63-15.84,7.87c-4.03,5.02-6.12,10.99-6.12,17.82
			c0,6.78,2.09,12.7,6.12,17.66c4.21,5.18,9.54,7.78,15.84,7.83c6.15,0,11.37-2.72,15.47-7.97c3.92-4.97,5.9-10.86,5.9-17.52
			c0-6.88-1.94-12.8-5.83-17.76C-218.49,407.75-223.7,405.08-230,405.08 M-234.32,475.88c-10.76,0-19.97-4.61-27.35-13.65
			c-6.98-8.69-10.51-18.91-10.51-30.42c0-12.94,3.53-23.82,10.62-32.27c7.34-8.83,17.17-13.34,29.19-13.37
			c8.53,0.03,16.01,3.2,22.38,9.41l4.1,4.72c0.18-0.62,0.47-1.86,0.9-4.44c0.72-4.25,1.62-6.12,3.01-6.12
			c1.53,0,4.26,0.43,8.44,1.31c6.08,1.41,7.31,2.41,7.31,3.51l-0.25,1.77c-2.11,13.08-3.18,24.49-3.18,33.99
			c0,0.43,0.34,7.5,2.05,38.82l0.11,1.21l-0.77,2.56l-2.16,0.82c-1.51,0-3.74,0.16-6.73,0.55c-3.04,0.35-5.31,0.55-6.8,0.59
			c-1.58-0.04-2.52-2.12-3.17-6.73c-0.47-3.44-0.83-4.78-1.01-5.26c-0.4,0.26-1.4,1-3.74,3.03c-3.27,2.79-6.34,4.94-9.18,6.42
			C-225.47,474.7-229.9,475.88-234.32,475.88z"/>
		<path class="st1" d="M-230,455.45L-230,455.45c-6.12,0-11.12-2.48-15.22-7.49c-3.96-4.82-5.94-10.6-5.94-17.18
			c0-6.59,1.98-12.42,5.94-17.34c4.1-5.08,9.1-7.57,15.22-7.57c6.15,0,11.05,2.51,15.01,7.62c3.74,4.82,5.61,10.64,5.61,17.28
			c0,6.49-1.91,12.22-5.72,17.04C-219.14,452.92-223.99,455.45-230,455.45 M-232.38,385.43L-232.38,385.43
			c-12.24,0-22.24,4.52-29.8,13.56c-7.13,8.66-10.73,19.69-10.73,32.85c0,11.68,3.56,22.08,10.65,30.87
			c7.52,9.26,16.91,13.99,27.93,13.99c4.5,0,9.1-1.24,13.6-3.68c2.84-1.46,5.97-3.63,9.29-6.5l2.88-2.34l0.68,4.01
			c0.5,3.68,1.37,7.45,3.89,7.45c1.49,0,3.76-0.19,6.91-0.6c2.95-0.35,5.18-0.52,6.62-0.52l2.68-1.07l0.92-3.1l-0.04-1.24
			c-1.69-31.13-2.03-38.25-2.03-38.77c0-9.43,1.06-20.84,3.18-33.92l0.25-1.84c0-1.86-1.94-2.91-7.92-4.29
			c-4.18-0.86-7-1.34-8.58-1.34c-2.28,0-3.15,3.25-3.73,6.73l-0.57,3.06l-3.1-3.58l-0.11-0.14
			C-215.97,388.61-223.67,385.43-232.38,385.43z M-230,457.02L-230,457.02c6.41,0,11.77-2.76,16.09-8.21
			c3.99-5.16,6.01-11.15,6.05-18.05c0-7.07-1.98-13.15-5.97-18.29c-4.21-5.44-9.61-8.21-16.16-8.21c-6.51,0-12.02,2.76-16.38,8.16
			c-4.21,5.2-6.3,11.32-6.3,18.34c0,7.02,2.09,13.08,6.3,18.18C-242.02,454.35-236.52,457.02-230,457.02z M-232.38,386.99
			c8.38,0,15.66,3.05,21.88,9.17l4.35,5.01l0.47,0.28c0.36-0.02,0.79-1.84,1.4-5.43c0.57-3.68,1.37-5.5,2.28-5.5
			c1.49,0,4.26,0.43,8.3,1.34c4.46,1,6.71,1.93,6.71,2.72l-0.23,1.58c-2.16,13.22-3.2,24.63-3.2,34.18c0,0.6,0.67,13.56,2.05,38.86
			l0.07,1.22l-2.16,2.56c-1.51,0-3.82,0.14-6.8,0.52c-3.02,0.36-5.29,0.58-6.73,0.58c-1.08,0-1.87-2.01-2.41-6.06
			s-1.04-6.06-1.58-6.06c-0.29,0-1.8,1.1-4.39,3.39c-3.2,2.76-6.23,4.87-9.03,6.3c-4.28,2.34-8.6,3.46-12.96,3.46
			c-10.58,0.02-19.5-4.46-26.74-13.4c-6.91-8.54-10.33-18.53-10.33-29.86c0-12.84,3.46-23.44,10.37-31.8
			C-253.79,391.33-244.22,386.99-232.38,386.99z"/>
		<path class="st2" d="M-171.12,473.74c-0.65,0-2.2-0.29-2.2-2.82c0-6.78,0.07-17.08,0.18-30.78c0.11-13.72,0.18-23.99,0.18-30.82
			c0-6.25-0.31-15.66-0.9-28.12c-0.54-12.37-0.83-21.82-0.83-28.01l2.48-2.48l4.46,0.22l4.37,0.29l4.52-0.29l4.53-0.23l1.69,0.62
			l0.47,1.59l-0.09,1.12c-1.21,21.34-1.78,39.91-1.78,55.29c0,6.83,0.11,17.18,0.29,30.84c0.27,13.68,0.36,24.07,0.4,30.75
			c-0.04,2.53-1.44,2.82-2.09,2.82"/>
		<path class="st1" d="M-154.32,349.89L-154.32,349.89l-4.57,0.28l-4.48,0.29l-4.32-0.29l-4.52-0.28l-3.26,3.31
			c0.02,6.19,0.31,15.64,0.88,28.1c0.57,12.37,0.86,21.82,0.86,28.03c0,6.83-0.06,16.95-0.16,30.84
			c-0.13,13.47-0.18,23.85-0.18,30.75c0,2.64,1.53,3.58,2.93,3.6h15.69c1.35,0,2.77-0.95,2.81-3.6c-0.04-6.78-0.11-16.86-0.36-30.8
			c-0.18-13.56-0.32-23.97-0.32-30.8c0-15.38,0.63-33.92,1.84-55.24l0.09-1.1l-0.7-2.19L-154.32,349.89 M-154.32,351.47l1.44,1.4
			l-0.11,1.13c-1.22,21.49-1.8,39.88-1.8,55.33c0,6.83,0.09,17.14,0.32,30.84c0.25,13.7,0.32,23.97,0.32,30.75l-1.3,2.05h-15.67
			l-1.46-2.05c0-6.78,0.07-17.08,0.18-30.75c0.09-13.7,0.18-24.01,0.18-30.84c0-6.25-0.32-15.61-0.9-28.12
			c-0.58-12.46-0.83-21.82-0.83-28.01l1.73-1.74l4.39,0.28l4.44,0.24l4.55-0.24L-154.32,351.47z"/>
		<path class="st3" d="M-100.04,405.08L-100.04,405.08c-6.3,0-11.63,2.63-15.87,7.87c-4.01,5.02-6.08,10.99-6.1,17.82
			c0.02,6.78,2.09,12.7,6.1,17.66c4.28,5.18,9.57,7.78,15.87,7.83c6.1-0.05,11.34-2.72,15.48-7.97c3.92-4.97,5.87-10.86,5.87-17.52
			c0-6.88-1.94-12.8-5.79-17.76C-88.53,407.75-93.78,405.08-100.04,405.08 M-104.38,475.88c-10.8,0-19.99-4.61-27.35-13.65
			c-6.96-8.69-10.51-18.91-10.53-30.39c0-12.97,3.58-23.84,10.6-32.3c7.38-8.83,17.22-13.34,29.2-13.37c8.53,0,16.07,3.2,22.39,9.41
			l4.1,4.72c0.2-0.62,0.49-1.86,0.94-4.44c0.68-4.25,1.58-6.12,2.99-6.12c1.53,0,4.28,0.43,8.42,1.31c6.1,1.41,7.32,2.41,7.32,3.51
			l-0.25,1.77c-2.12,13.03-3.19,24.49-3.19,33.99c0,0.43,0.4,7.5,2.05,38.82l0.11,1.21l-0.77,2.56l-2.18,0.82
			c-1.47,0-3.72,0.16-6.71,0.55c-3.04,0.35-5.35,0.55-6.86,0.59c-1.51-0.04-2.47-2.05-3.1-6.73c-0.47-3.44-0.83-4.78-1.02-5.26
			c-0.38,0.29-1.42,1-3.76,3.01c-3.26,2.82-6.34,4.97-9.14,6.45C-95.51,474.7-99.97,475.88-104.38,475.88z"/>
		<path class="st4" d="M-100.04,455.45L-100.04,455.45c-6.19,0-11.14-2.48-15.28-7.49c-3.94-4.82-5.94-10.6-5.94-17.18
			c0-6.61,2-12.42,5.96-17.28c4.12-5.16,9.1-7.62,15.26-7.62c6.12,0,11.03,2.51,14.95,7.62c3.76,4.77,5.67,10.64,5.67,17.28
			c0,6.49-1.94,12.22-5.72,17.04C-89.17,452.92-94.07,455.45-100.04,455.45 M-102.42,385.43L-102.42,385.43
			c-12.27,0-22.28,4.52-29.8,13.56c-7.14,8.66-10.76,19.69-10.76,32.85c0,11.68,3.56,22.08,10.65,30.87
			c7.56,9.26,16.95,13.99,27.93,13.99c4.55,0,9.12-1.24,13.6-3.68c2.86-1.43,6.01-3.63,9.29-6.5l2.88-2.34l0.68,4.04
			c0.5,3.65,1.37,7.42,3.85,7.42c1.55,0,3.81-0.17,6.95-0.6c2.95-0.35,5.18-0.52,6.62-0.52l2.74-1.07l0.94-3.1l-0.11-1.22
			c-1.65-31.15-2.02-38.27-2.02-38.79c0-9.43,1.06-20.82,3.15-33.92l0.27-1.84c0.04-1.86-1.91-2.91-7.88-4.29
			c-4.19-0.86-6.98-1.34-8.6-1.34c-2.32,0-3.17,3.25-3.74,6.73l-0.56,3.06l-3.09-3.58l-0.11-0.14
			C-86.04,388.61-93.73,385.41-102.42,385.43z M-100.04,457.02L-100.04,457.02c6.41,0,11.73-2.76,16.05-8.21
			c4.03-5.16,6.05-11.18,6.05-18.05c0-7.07-1.96-13.15-6.01-18.26c-4.16-5.47-9.54-8.23-16.09-8.23s-12.04,2.76-16.41,8.16
			c-4.21,5.2-6.3,11.32-6.3,18.34c0,7.02,2.09,13.08,6.3,18.18C-112.08,454.35-106.6,457.02-100.04,457.02z M-102.42,386.99
			c8.35,0,15.66,3.05,21.84,9.17l4.39,5.01l0.49,0.26c0.31,0,0.76-1.82,1.37-5.42c0.59-3.68,1.39-5.5,2.28-5.5
			c1.44,0,4.25,0.43,8.28,1.34c4.5,1,6.73,1.93,6.73,2.72l-0.31,1.58c-2.07,13.22-3.17,24.63-3.17,34.18c0,0.6,0.7,13.56,2.07,38.92
			l0.09,1.19l-2.21,2.54c-1.46,0-3.71,0.14-6.73,0.52c-3.06,0.36-5.35,0.58-6.8,0.58c-1.03,0-1.84-2.01-2.38-6.06
			c-0.54-4.06-1.06-6.06-1.55-6.05c-0.32,0-1.8,1.08-4.39,3.37c-3.24,2.76-6.26,4.87-9.03,6.3c-4.32,2.34-8.66,3.48-12.96,3.46
			c-10.58,0-19.51-4.46-26.78-13.4c-6.88-8.54-10.35-18.53-10.35-29.89c0-12.81,3.47-23.41,10.42-31.77
			C-123.83,391.33-114.28,386.99-102.42,386.99z"/>
		<path class="st5" d="M-41.15,473.74c-0.65,0-2.21-0.29-2.21-2.82c0-6.78,0.04-17.08,0.14-30.75c0.14-13.7,0.18-24.01,0.18-30.84
			c0-6.21-0.31-15.66-0.86-28.12c-0.58-12.37-0.86-21.82-0.85-28.01l2.45-2.5l4.48,0.23l4.35,0.29l4.53-0.29l4.61-0.23l1.62,0.62
			l0.5,1.59l-0.11,1.12c-1.22,21.32-1.82,39.91-1.82,55.29c-0.02,6.93,0.13,17.28,0.34,30.84c0.22,14.04,0.34,24.11,0.34,30.75
			c0,2.53-1.46,2.82-2.07,2.82"/>
		<path class="st0" d="M-24.32,349.89L-24.32,349.89l-4.64,0.28l-4.5,0.29l-4.27-0.29l-4.57-0.26l-3.2,3.29
			c0,6.19,0.29,15.64,0.85,28.1c0.57,12.37,0.86,21.82,0.86,28.03c0.02,6.83-0.07,16.95-0.14,30.84
			c-0.11,13.47-0.18,23.85-0.18,30.75c0,2.64,1.55,3.6,2.97,3.6h15.64c1.33,0,2.81-0.95,2.81-3.6c0-6.78-0.11-16.86-0.32-30.8
			c-0.22-13.56-0.36-23.97-0.36-30.8c0-15.38,0.65-33.95,1.82-55.24l0.09-1.1l-0.68-2.19L-24.32,349.89 M-24.32,351.47l1.37,1.4
			l-0.09,1.13c-1.21,21.49-1.78,39.88-1.8,55.33c0.02,6.83,0.09,17.14,0.31,30.84c0.25,13.7,0.36,23.97,0.36,30.75l-1.33,2.05
			h-15.64l-1.48-2.05c0-6.78,0.05-17.08,0.16-30.75c0.11-13.7,0.16-24.01,0.16-30.84c0-6.25-0.27-15.61-0.85-28.12
			c-0.59-12.46-0.86-21.82-0.86-28.01l1.71-1.74l4.41,0.28l4.43,0.24l4.61-0.24L-24.32,351.47z"/>
		<path class="st6" d="M-298.64,473.74l-1.84-1.12c-8.53-0.65-16.23-0.94-22.85-0.95l-3.81,0.02c-3.85,0.1-9.68,0.34-17.31,0.69
			l-4.61,0.24l-2.45,1.12l-4.46-0.14l-4.39-0.05l-4.57,0.05l-4.46,0.09l-1.94-0.52l-0.22-0.86l0.07-0.42
			c1.22-7.5,1.76-13.99,1.76-19.39c0-2.38-0.04-6.06-0.29-10.89c-0.22-4.82-0.32-8.48-0.32-10.89l2.05-1.48h15.62l2.27,1.48
			c0,2.41-0.07,6.06-0.18,10.89c-0.11,4.46-0.14,7.88-0.18,10.32l5.9-0.05c7.7-0.04,13.5-0.09,17.35-0.14
			c3.49-0.09,8.75-0.52,15.73-1.24c4.28-0.48,7.95-0.81,11.05-1l0.04-9.31c0.11-13.7,0.14-24.01,0.14-30.84
			c0.04-6.21-0.25-15.66-0.83-28.12c-0.57-12.37-0.86-21.82-0.86-28.01l2.48-2.48l4.46,0.22l4.35,0.29l4.53-0.29l4.57-0.23
			l1.65,0.62l0.47,1.59l-0.07,1.12c-1.22,21.32-1.8,39.91-1.8,55.29c0,6.83,0.11,17.24,0.32,30.84c0.25,13.92,0.32,23.97,0.32,30.75
			c0,2.53-1.44,2.82-2.05,2.82"/>
		<path class="st7" d="M-281.83,349.89L-281.83,349.89c-1.04,0-2.56,0.09-4.61,0.28l-4.5,0.29l-4.28-0.29l-4.53-0.28l-3.24,3.31
			c0.04,6.19,0.29,15.64,0.9,28.1c0.54,12.39,0.83,21.82,0.83,28.03c0,6.83-0.04,16.95-0.14,30.84l-0.07,8.55
			c-2.92,0.22-6.37,0.52-10.4,0.95c-6.91,0.76-12.16,1.14-15.66,1.2c-3.81,0.09-9.5,0.19-17.35,0.23h-5.11
			c0.04-2.28,0.07-5.44,0.14-9.45c0.14-4.78,0.18-8.46,0.18-10.94l-1.22-1.95l-1.76-0.29l-15.58-0.05c-2.7,0-2.84,1.91-2.84,2.29
			c0,2.41,0.11,5.97,0.32,10.94c0.22,4.8,0.36,8.45,0.36,10.83c-0.04,5.35-0.65,11.79-1.8,19.29l-0.11,0.29l0.4,1.57l2.48,0.86
			l4.53-0.1l4.5-0.1l4.39,0.14l4.5,0.07l2.95-1.17l4.14-0.19c7.63-0.39,13.42-0.58,17.31-0.67l3.78-0.03
			c6.55,0,14.07,0.31,22.42,0.93l2.27,1.11l15.66,0.02c1.33,0,2.81-0.95,2.81-3.6c0-6.78-0.14-16.86-0.32-30.8
			c-0.22-13.56-0.32-23.97-0.32-30.8c0-15.35,0.57-33.92,1.76-55.24l0.07-1.1l-0.65-2.19L-281.83,349.89 M-281.83,351.47l1.4,1.38
			l-0.11,1.15c-1.19,21.49-1.8,39.91-1.8,55.33c0,6.83,0.11,17.14,0.36,30.84c0.18,13.68,0.32,23.97,0.32,30.75l-1.33,2.05h-15.66
			l-1.33-1.1c-8.78-0.67-16.52-1.01-23.36-1.01l-3.85,0.05c-3.85,0.04-9.61,0.28-17.31,0.68l-5.33,0.27l0.04,0.42l-1.73,0.67
			l-4.43-0.14l-4.43-0.07h-0.04l-4.53,0.07l-4.46,0.09h-0.04l-1.4-0.48l0.07-0.38c1.22-7.62,1.84-14.14,1.84-19.58
			c0-2.41-0.11-6.06-0.32-10.93c-0.22-4.78-0.32-8.43-0.32-10.84l1.3-0.69l15.62,0.03l1.51,0.69c0,2.38-0.07,6.04-0.15,10.86
			c-0.14,4.82-0.22,8.5-0.22,10.89v0.19c2.05-0.02,4.25-0.05,6.69-0.05c7.67-0.04,13.46-0.1,17.31-0.14
			c3.53-0.09,8.78-0.5,15.8-1.24c4.68-0.48,8.56-0.81,11.7-1.05c0-3.1,0.04-6.44,0.07-10.02c0.11-13.7,0.18-24.01,0.18-30.84
			c0-6.25-0.32-15.61-0.86-28.12c-0.57-12.46-0.86-21.82-0.86-28.01l1.73-1.74l4.43,0.28l4.39,0.24l4.61-0.24L-281.83,351.47z"/>
		<path class="st6" d="M-290.97,351.13c-6.91,0-12.52-5.93-12.52-13.18c0-7.35,5.61-13.3,12.52-13.27c6.87,0,12.56,5.92,12.56,13.27
			C-278.41,345.2-284.06,351.13-290.97,351.13"/>
		<path class="st7" d="M-290.97,323.92L-290.97,323.92c-7.31,0-13.25,6.25-13.25,13.99c0,7.73,5.94,14.04,13.25,14.04
			c7.31,0,13.28-6.31,13.28-13.99C-277.69,330.21-283.66,323.86-290.97,323.92 M-290.97,325.45c6.51,0,11.8,5.58,11.8,12.46
			c0,6.88-5.29,12.48-11.8,12.48c-6.51,0-11.77-5.61-11.77-12.48C-302.74,331.02-297.48,325.45-290.97,325.45z"/>
		<path class="st8" d="M-222.01,432.82c0,8.07-6.12,14.56-13.71,14.56c-7.63,0-13.75-6.49-13.75-14.53
			c0-8.05,6.12-14.54,13.75-14.54C-228.13,418.31-222.01,424.8-222.01,432.82"/>
		<path class="st9" d="M-227.7,432.85c0,4.7-3.6,8.52-8.03,8.52c-4.46,0-8.1-3.82-8.1-8.52c0-4.71,3.63-8.53,8.1-8.53
			C-231.3,424.32-227.7,428.14-227.7,432.85"/>
		<polyline class="st10" points="-235.73,423.27 -237.96,425.66 -240.19,423.29 -237.96,420.95 -235.73,423.27 		"/>
		<polyline class="st10" points="-228.31,440.06 -231.91,443.9 -235.51,440.06 -231.91,436.26 -228.31,440.06 		"/>
		<path class="st8" d="M-92.31,432.85c0,8.04-6.15,14.53-13.73,14.53c-7.61,0-13.75-6.49-13.75-14.53c0-8.05,6.14-14.54,13.75-14.54
			C-98.46,418.31-92.31,424.8-92.31,432.85"/>
		<path class="st9" d="M-97.99,432.85c0,4.7-3.6,8.52-8.04,8.52c-4.44,0-8.06-3.82-8.06-8.52c0-4.71,3.62-8.53,8.06-8.53
			C-101.61,424.32-97.99,428.14-97.99,432.85"/>
		<polyline class="st10" points="-106.04,423.29 -108.25,425.66 -110.48,423.27 -108.25,420.94 -106.04,423.29 		"/>
		<polyline class="st10" points="-98.61,440.08 -102.2,443.85 -105.84,440.06 -102.2,436.26 -98.61,440.08 		"/>
		<path class="st1" d="M-259.8,382.64c11.19-10.63,30.88-15.57,46.17-4.32C-229.9,375.05-240.22,374.28-259.8,382.64"/>
		<path class="st1" d="M-130.13,382.64c11.23-10.63,30.91-15.57,46.18-4.3C-100.19,375.05-110.52,374.28-130.13,382.64"/>
		<path class="st10" d="M-137.65,431c-1.78-15.03,7.97-39.91,29.8-38.86C-122.75,393.88-134.72,409.62-137.65,431"/>
		<path class="st10" d="M-267.51,431c-1.76-15.03,7.99-39.94,29.84-38.86C-252.61,393.86-264.52,409.66-267.51,431"/>
		<path class="st1" d="M-103.59,479.9c-20.71,31.42-82.38,36-119.65,3.63C-189.23,502.38-145.64,512.89-103.59,479.9"/>
		<path class="st11" d="M-268.8,340.39L-268.8,340.39c5.51-8.75,13.71-39.72,23.21-32.18C-238.68,313.74-243.32,326.78-268.8,340.39
			 M-236.77,300.47c-7.95-18.19-22.85-12.08-26.49,6.59c-3.64,18.73-11.41,38.14-17.74,40.97
			C-229.75,339.53-228.78,318.76-236.77,300.47z"/>
		<path class="st11" d="M-333.98,323.38L-333.98,323.38c-5.4-5.77-6.98-10.36-0.32-14.13c6.73-3.72,11.01,0.52,12.06,6.54
			c1.12,6.04,5.07,17.85,9.03,23.44C-321.74,333.65-328.62,329.16-333.98,323.38 M-310.55,315.94
			c-0.76-11.36-2.77-20.71-23.68-17.24c-20.95,3.48-17.28,19.84-10.94,26.26c6.33,6.41,30.27,21.03,42,22.44
			C-306.48,343.22-309.76,327.31-310.55,315.94z"/>
		<path class="st11" d="M-276.72,349.26c6.91-2.53,21.49-4.1,36.82,9.1l-9.03,0.46c-0.4,3.96-4.1,8.07-4.1,8.07
			C-257.32,359.67-266.21,350.17-276.72,349.26"/>
		<path class="st11" d="M-306.73,348.31c-6.73-3.05-21.13-5.82-37.36,6.06l8.96,1.17c0.11,3.99,3.49,8.38,3.49,8.38
			C-326.85,357.14-317.32,348.36-306.73,348.31"/>
		<path class="st0" d="M-349.02,508.83c0,4.58-1.04,8.02-3.06,10.24c-2.34,2.55-5.33,3.84-8.96,3.84c-3.38,0-6.26-1.19-8.56-3.67
			c-1.48-1.56-2.38-3.46-2.77-5.83c-0.25-1.33-0.36-3.91-0.36-7.54c0-3.73,0.11-6.21,0.36-7.59c0.4-2.38,1.3-4.29,2.77-5.82
			c2.3-2.44,5.18-3.7,8.56-3.7c3.46,0,6.3,1.11,8.46,3.27c1.87,1.91,3.06,4.44,3.56,7.49h-6.26c-0.76-3.25-2.7-4.91-5.76-4.87
			l-3.99,1.76l-1.4,4.53c-0.07,0.53-0.11,2.19-0.11,4.92c0,2.67,0.04,4.29,0.11,4.87l1.4,4.59l3.99,1.76l4.39-1.91l1.44-4.49v-1.29
			h-5.83v-5.5h12.02"/>
		<path class="st1" d="M-325.77,522.62L-325.77,522.62h-5.87v-24.54h5.87 M-325.77,493.89l-5.87,0.04v-5.01h5.87V493.89z"/>
		<path class="st3" d="M-296.94,503.43l-4.21-0.04v19.24h-5.87v-19.21l-2.41,0.02v-4.63h2.41v-3.1l1.62-4.78
			c1.26-1.53,2.99-2.24,5.18-2.19l3.28-0.04v5.15h-2.23l-1.98,2.24v2.72h4.21"/>
		<path class="st5" d="M-270.35,522.62h-3.2c-2.19,0-3.85-0.71-5.11-2.19l-1.62-4.84v-12.16h-2.45v-4.63h2.45v-7.28h5.87v7.28h4.07
			v4.62l-4.07,0.02v11.8l1.98,2.19h2.09"/>
		<path class="st6" d="M-235.98,514.9c0,2.63-0.97,4.63-2.88,6.01c-1.8,1.34-4.14,2.01-7.02,2.01c-2.16,0-3.92-0.19-5.29-0.57
			l-4.61-2.96l3.82-4.01c1.44,1.53,3.53,2.31,6.19,2.31c2.73,0,4.1-0.84,4.1-2.56l-2.45-2.24l-3.67-0.39
			c-4.53-0.48-6.8-2.76-6.8-6.87c0-2.48,0.94-4.42,2.73-5.87c1.66-1.34,3.74-1.96,6.26-1.96c3.99,0,6.95,0.91,8.89,2.86l-3.56,3.82
			c-1.19-1.1-2.99-1.67-5.43-1.65c-2.19,0-3.31,0.74-3.31,2.37l2.45,2.1l3.64,0.39C-238.32,508.17-235.98,510.55-235.98,514.9"/>
	</g>
</g>
</svg>
